<svg viewBox="0 0 600 400" xmlns="http://www.w3.org/2000/svg">
<g transform="translate(72, 364)">
<g>
<g>
<path d="M0,-340 L0,-340 L0.3203203,-341.69153 L0.6406406,-343.3572 L0.960961,-344.99582 L1.2812812,-346.60623 L1.6016016,-348.18726 L1.921922,-349.7377 L2.2422423,-351.25632 L2.5625625,-352.74194 L2.8828828,-354.19327 L3.2032032,-355.60907 L3.5235236,-356.98813 L3.843844,-358.32913 L4.164164,-359.63083 L4.4844847,-360.8919 L4.804805,-362.11115 L5.125125,-363.28723 L5.4454455,-364.41885 L5.7657657,-365.50473 L6.0860863,-366.5436 L6.4064064,-367.53418 L6.7267265,-368.47522 L7.047047,-369.3654 L7.3673673,-370.20346 L7.687688,-370.98822 L8.008008,-371.71838 L8.328328,-372.3928 L8.648648,-373.01022 L8.968969,-373.5695 L9.289289,-374.0695 L9.60961,-374.50903 L9.92993,-374.8871 L10.25025,-375.20255 L10.570571,-375.45444 L10.890891,-375.6417 L11.211211,-375.76343 L11.531531,-375.81866 L11.851851,-375.8066 L12.172173,-375.7264 L12.492493,-375.5773 L12.812813,-375.35855 L13.133133,-375.06952 L13.453453,-374.70963 L13.773774,-374.27832 L14.094094,-373.7751 L14.414414,-373.1996 L14.734735,-372.5514 L15.055055,-371.83032 L15.375376,-371.0361 L15.695696,-370.16867 L16.016016,-369.22794 L16.336336,-368.21393 L16.656656,-367.12677 L16.976976,-365.96667 L17.297297,-364.7339 L17.617619,-363.42877 L17.937939,-362.05176 L18.258259,-360.6034 L18.578579,-359.08426 L18.8989,-357.49506 L19.21922,-355.83658 L19.53954,-354.1097 L19.85986,-352.31534 L20.18018,-350.45453 L20.5005,-348.5284 L20.820822,-346.53815 L21.141142,-344.48505 L21.461462,-342.37042 L21.781782,-340.1957 L22.102102,-337.96243 L22.422422,-335.67212 L22.742743,-333.32642 L23.063063,-330.92706 L23.383383,-328.47577 L23.703703,-325.97437 L24.024025,-323.42474 L24.344345,-320.82883 L24.664665,-318.18857 L24.984985,-315.506 L25.305305,-312.78317 L25.625626,-310.02216 L25.945946,-307.22507 L26.266266,-304.39407 L26.586586,-301.5313 L26.906906,-298.63898 L27.227228,-295.71924 L27.547548,-292.77432 L27.867868,-289.8064 L28.188189,-286.8177 L28.508509,-283.8104 L28.828829,-280.78665 L29.149149,-277.7487 L29.46947,-274.69864 L29.78979,-271.63864 L30.11011,-268.57074 L30.430431,-265.4971 L30.750751,-262.41968 L31.071072,-259.34055 L31.391392,-256.26163 L31.711712,-253.18486 L32.032032,-250.11212 L32.352352,-247.04524 L32.672672,-243.98601 L32.992992,-240.93613 L33.313313,-237.8973 L33.633633,-234.87112 L33.953953,-231.85918 L34.274273,-228.86296 L34.594593,-225.88391 L34.914913,-222.92342 L35.235237,-219.98282 L35.555557,-217.06335 L35.875877,-214.16624 L36.196198,-211.29263 L36.516518,-208.44357 L36.836838,-205.6201 L37.157158,-202.82318 L37.477478,-200.05371 L37.7978,-197.3125 L38.11812,-194.60037 L38.43844,-191.91801 L38.75876,-189.2661 L39.07908,-186.64525 L39.3994,-184.05602 L39.71972,-181.4989 L40.04004,-178.97435 L40.36036,-176.48277 L40.68068,-174.02452 L41.001,-171.5999 L41.32132,-169.20917 L41.641644,-166.85255 L41.961964,-164.53021 L42.282284,-162.24231 L42.602604,-159.9889 L42.922924,-157.7701 L43.243244,-155.58588 L43.563564,-153.43626 L43.883884,-151.32118 L44.204205,-149.24059 L44.524525,-147.19438 L44.844845,-145.1824 L45.165165,-143.20454 L45.485485,-141.26059 L45.805805,-139.35036 L46.126125,-137.47362 L46.446445,-135.63014 L46.766766,-133.81967 L47.087086,-132.0419 L47.407406,-130.29657 L47.727726,-128.58336 L48.04805,-126.901955 L48.36837,-125.252014 L48.68869,-123.633194 L49.00901,-122.04516 L49.32933,-120.487526 L49.64965,-118.95994 L49.96997,-117.46201 L50.29029,-115.99337 L50.61061,-114.55362 L50.93093,-113.142365 L51.25125,-111.75922 L51.57157,-110.40377 L51.89189,-109.07563 L52.21221,-107.77439 L52.53253,-106.49964 L52.85285,-105.25098 L53.173172,-104.02801 L53.493492,-102.83031 L53.813812,-101.65749 L54.134132,-100.50915 L54.454456,-99.38488 L54.774776,-98.28429 L55.095097,-97.20698 L55.415417,-96.152565 L55.735737,-95.12064 L56.056057,-94.11084 L56.376377,-93.12277 L56.696697,-92.15607 L57.017017,-91.210335 L57.337337,-90.285225 L57.657658,-89.38036 L57.977978,-88.495384 L58.298298,-87.62995 L58.618618,-86.78369 L58.93894,-85.95628 L59.25926,-85.14737 L59.57958,-84.35662 L59.8999,-83.58372 L60.22022,-82.82832 L60.54054,-82.09012 L60.860863,-81.368805 L61.181183,-80.664055 L61.501503,-79.975586 L61.821823,-79.30309 L62.142143,-78.646286 L62.462463,-78.004875 L62.782784,-77.378586 L63.103104,-76.76714 L63.423424,-76.17028 L63.743744,-75.58772 L64.064064,-75.01922 L64.384384,-74.464516 L64.704704,-73.92337 L65.025024,-73.39553 L65.345345,-72.88077 L65.665665,-72.37884 L65.985985,-71.88953 L66.306305,-71.4126 L66.626625,-70.947845 L66.946945,-70.495056 L67.267265,-70.05401 L67.587585,-69.62452 L67.907906,-69.206375 L68.228226,-68.799385 L68.548546,-68.403366 L68.868866,-68.01813 L69.189186,-67.643486 L69.50951,-67.279274 L69.82983,-66.925316 L70.15015,-66.581436 L70.470474,-66.24748 L70.790794,-65.92329 L71.111115,-65.608696 L71.431435,-65.30356 L71.751755,-65.00773 L72.072075,-64.721054 L72.392395,-64.443405 L72.712715,-64.17464 L73.033035,-63.91462 L73.353355,-63.663216 L73.673676,-63.42031 L73.993996,-63.185772 L74.314316,-62.95948 L74.634636,-62.74132 L74.954956,-62.531185 L75.275276,-62.328953 L75.5956,-62.13452 L75.91592,-61.94779 L76.23624,-61.768646 L76.55656,-61.597 L76.87688,-61.432755 L77.1972,-61.275814 L77.51752,-61.126087 L77.83784,-60.983494 L78.15816,-60.84794 L78.47848,-60.71934 L78.7988,-60.597626 L79.11912,-60.48271 L79.43944,-60.374523 L79.75976,-60.27299 L80.08008,-60.178036 L80.4004,-60.0896 L80.72072,-60.007607 L81.04104,-59.932 L81.36136,-59.862713 L81.68168,-59.799686 L82.002,-59.742867 L82.32232,-59.692192 L82.64264,-59.64761 L82.96296,-59.609074 L83.28329,-59.576527 L83.60361,-59.549923 L83.92393,-59.52922 L84.24425,-59.514366 L84.56457,-59.505325 L84.88489,-59.502052 L85.20521,-59.50451 L85.52553,-59.512657 L85.84585,-59.526463 L86.16617,-59.545887 L86.48649,-59.570904 L86.80681,-59.601475 L87.12713,-59.637573 L87.44745,-59.679176 L87.76777,-59.726246 L88.08809,-59.778767 L88.40841,-59.836708 L88.72873,-59.90005 L89.04905,-59.968777 L89.36937,-60.04286 L89.68969,-60.122284 L90.01001,-60.207035 L90.33033,-60.297092 L90.65065,-60.392445 L90.97097,-60.49308 L91.29129,-60.59898 L91.61161,-60.71014 L91.93193,-60.826553 L92.25225,-60.9482 L92.57257,-61.075085 L92.89289,-61.207195 L93.21321,-61.34453 L93.53353,-61.487076 L93.85385,-61.634842 L94.17417,-61.787823 L94.49449,-61.946014 L94.81481,-62.10942 L95.13513,-62.278046 L95.45545,-62.451885 L95.77577,-62.630947 L96.0961,-62.81524 L96.41642,-63.00476 L96.73674,-63.19952 L97.05706,-63.39953 L97.37738,-63.60479 L97.6977,-63.81532 L98.01802,-64.03112 L98.33834,-64.25221 L98.65866,-64.4786 L98.97898,-64.710304 L99.2993,-64.947334 L99.61962,-65.189705 L99.93994,-65.43743 L100.26026,-65.69054 L100.58058,-65.949036 L100.9009,-66.212944 L101.22122,-66.482285 L101.54154,-66.75708 L101.86186,-67.037346 L102.18218,-67.323105 L102.5025,-67.61439 L102.82282,-67.91121 L103.14314,-68.21359 L103.46346,-68.521576 L103.78378,-68.835175 L104.1041,-69.15442 L104.42442,-69.47933 L104.74474,-69.80995 L105.06506,-70.1463 L105.38538,-70.48841 L105.7057,-70.83631 L106.026024,-71.19004 L106.346344,-71.54962 L106.666664,-71.91509 L106.986984,-72.28649 L107.307304,-72.66385 L107.627625,-73.0472 L107.947945,-73.436584 L108.268265,-73.83203 L108.588585,-74.23358 L108.90891,-74.64128 L109.22923,-75.05516 L109.54955,-75.475266 L109.86987,-75.901634 L110.19019,-76.334305 L110.51051,-76.77332 L110.83083,-77.21873 L111.15115,-77.67057 L111.47147,-78.12889 L111.791794,-78.59373 L112.112114,-79.06514 L112.432434,-79.54316 L112.752754,-80.02784 L113.073074,-80.519226 L113.393394,-81.01737 L113.713715,-81.52232 L114.034035,-82.03413 L114.354355,-82.55283 L114.674675,-83.0785 L114.994995,-83.61117 L115.315315,-84.150894 L115.635635,-84.69773 L115.955956,-85.25174 L116.276276,-85.81296 L116.596596,-86.38145 L116.916916,-86.95727 L117.237236,-87.540474 L117.557556,-88.13111 L117.87788,-88.729256 L118.1982,-89.334946 L118.51852,-89.94824 L118.83884,-90.569214 L119.15916,-91.197914 L119.47948,-91.834404 L119.7998,-92.47874 L120.12012,-93.13098 L120.44044,-93.79119 L120.76076,-94.459435 L121.08108,-95.13577 L121.4014,-95.82027 L121.721725,-96.51298 L122.042046,-97.21397 L122.362366,-97.9233 L122.682686,-98.64105 L123.003006,-99.36727 L123.323326,-100.10203 L123.64365,-100.8454 L123.96397,-101.59743 L124.28429,-102.3582 L124.60461,-103.12778 L124.92493,-103.90622 L125.24525,-104.6936 L125.56557,-105.48999 L125.88589,-106.29545 L126.20621,-107.11005 L126.52653,-107.93386 L126.84685,-108.766945 L127.16717,-109.609375 L127.48749,-110.46122 L127.80781,-111.32255 L128.12813,-112.19343 L128.44846,-113.07393 L128.76877,-113.96413 L129.0891,-114.86408 L129.40941,-115.773865 L129.72974,-116.69354 L130.05005,-117.6232 L130.37038,-118.56289 L130.69069,-119.51268 L131.01102,-120.47266 L131.33133,-121.44287 L131.65166,-122.42341 L131.97197,-123.41432 L132.2923,-124.41569 L132.61261,-125.427574 L132.93294,-126.45005 L133.25325,-127.48318 L133.57358,-128.52702 L133.89389,-129.58167 L134.21422,-130.64716 L134.53453,-131.72357 L134.85486,-132.81097 L135.17517,-133.90942 L135.4955,-135.019 L135.81581,-136.13974 L136.13614,-137.27171 L136.45645,-138.41501 L136.77678,-139.56966 L137.09709,-140.73572 L137.41742,-141.91327 L137.73773,-143.10236 L138.05806,-144.30304 L138.37837,-145.51538 L138.6987,-146.73943 L139.01901,-147.97522 L139.33934,-149.22282 L139.65965,-150.4823 L139.97998,-151.75368 L140.3003,-153.03702 L140.62062,-154.33237 L140.94095,-155.63976 L141.26126,-156.95923 L141.58159,-158.29083 L141.9019,-159.6346 L142.22223,-160.99059 L142.54254,-162.3588 L142.86287,-163.73927 L143.18318,-165.13205 L143.50351,-166.53714 L143.82382,-167.95459 L144.14415,-169.38441 L144.46446,-170.82663 L144.78479,-172.28123 L145.1051,-173.74828 L145.42543,-175.22772 L145.74574,-176.71962 L146.06607,-178.22395 L146.38638,-179.7407 L146.70671,-181.26991 L147.02702,-182.81152 L147.34735,-184.36555 L147.66766,-185.93199 L147.98799,-187.51079 L148.3083,-189.10196 L148.62863,-190.70543 L148.94894,-192.3212 L149.26927,-193.94922 L149.58958,-195.58945 L149.90991,-197.24184 L150.23022,-198.90633 L150.55055,-200.58287 L150.87086,-202.27138 L151.1912,-203.9718 L151.5115,-205.68407 L151.83183,-207.40807 L152.15215,-209.14374 L152.47247,-210.89096 L152.79279,-212.64964 L153.11311,-214.41968 L153.43343,-216.20094 L153.75375,-217.9933 L154.07408,-219.79663 L154.3944,-221.6108 L154.71472,-223.43564 L155.03503,-225.27101 L155.35536,-227.11673 L155.67567,-228.97263 L155.996,-230.83852 L156.31631,-232.71422 L156.63664,-234.5995 L156.95695,-236.49417 L157.27728,-238.39801 L157.5976,-240.31075 L157.91792,-242.23218 L158.23824,-244.16202 L158.55856,-246.10002 L158.87888,-248.04588 L159.1992,-249.99933 L159.51952,-251.96004 L159.83984,-253.92772 L160.16016,-255.90202 L160.48048,-257.8826 L160.8008,-259.8691 L161.12112,-261.8612 L161.44144,-263.85843 L161.76176,-265.86047 L162.08208,-267.86685 L162.4024,-269.87717 L162.72272,-271.891 L163.04305,-273.9078 L163.36336,-275.92722 L163.68369,-277.94867 L164.004,-279.97168 L164.32433,-281.99573 L164.64464,-284.02026 L164.96497,-286.04474 L165.28528,-288.06857 L165.6056,-290.09116 L165.92592,-292.11188 L166.24625,-294.13013 L166.56657,-296.14526 L166.88689,-298.15656 L167.20721,-300.1634 L167.52753,-302.165 L167.84785,-304.16074 L168.16817,-306.14975 L168.4885,-308.13135 L168.8088,-310.10474 L169.12914,-312.0691 L169.44945,-314.0236 L169.76978,-315.96738 L170.09009,-317.89963 L170.41042,-319.8194 L170.73073,-321.72583 L171.05106,-323.61795 L171.37137,-325.49484 L171.6917,-327.35553 L172.01201,-329.19904 L172.33234,-331.02435 L172.65265,-332.8304 L172.97298,-334.61624 L173.29329,-336.3807 L173.61362,-338.12277 L173.93393,-339.84128 L174.25426,-341.5352 L174.57457,-343.2033 L174.8949,-344.84448 L175.21521,-346.45758 L175.53554,-348.04138 L175.85585,-349.59473 L176.17618,-351.11636 L176.49649,-352.6051 L176.81682,-354.05966 L177.13713,-355.47885 L177.45746,-356.86136 L177.77777,-358.20596 L178.0981,-359.51135 L178.41841,-360.7763 L178.73874,-361.99948 L179.05905,-363.17963 L179.37938,-364.31543 L179.6997,-365.40564 L180.02002,-366.44894 L180.34035,-367.44406 L180.66066,-368.38974 L180.98099,-369.2847 L181.3013,-370.1277 L181.62163,-370.91745 L181.94194,-371.65277 L182.26227,-372.3324 L182.58258,-372.9552 L182.90291,-373.51993 L183.22322,-374.02548 L183.54355,-374.4707 L183.86386,-374.85452 L184.18419,-375.17587 L184.5045,-375.4337 L184.82483,-375.627 L185.14514,-375.75488 L185.46547,-375.81635 L185.78578,-375.8106 L186.10611,-375.73676 L186.42642,-375.5941 L186.74675,-375.38187 L187.06706,-375.09943 L187.38739,-374.74612 L187.7077,-374.32147 L188.02803,-373.82498 L188.34834,-373.2562 L188.66867,-372.6148 L188.98898,-371.9005 L189.30931,-371.11313 L189.62962,-370.2525 L189.94995,-369.31857 L190.27026,-368.3114 L190.59059,-367.23105 L190.9109,-366.07773 L191.23123,-364.85168 L191.55154,-363.55328 L191.87187,-362.18292 L192.1922,-360.74118 L192.51251,-359.2286 L192.83284,-357.6459 L193.15315,-355.99384 L193.47348,-354.2733 L193.7938,-352.48517 L194.11412,-350.6305 L194.43443,-348.71042 L194.75476,-346.72607 L195.07507,-344.67874 L195.3954,-342.5698 L195.71571,-340.4006 L196.03604,-338.1727 L196.35635,-335.88763 L196.67668,-333.54703 L196.997,-331.1526 L197.31732,-328.70605 L197.63763,-326.20923 L197.95796,-323.66403 L198.27827,-321.07233 L198.5986,-318.43613 L198.91891,-315.75742 L199.23924,-313.03824 L199.55956,-310.2807 L199.87988,-307.48688 L200.2002,-304.65894 L200.52052,-301.79904 L200.84084,-298.90936 L201.16116,-295.9921 L201.48148,-293.0494 L201.8018,-290.08353 L202.12212,-287.09668 L202.44244,-284.091 L202.76276,-281.06873 L203.08308,-278.03198 L203.4034,-274.98297 L203.72372,-271.9238 L204.04404,-268.85657 L204.36436,-265.78336 L204.68468,-262.7062 L205.005,-259.62714 L205.32533,-256.54813 L205.64565,-253.47108 L205.96597,-250.39789 L206.28629,-247.33038 L206.60661,-244.27036 L206.92693,-241.21954 L207.24725,-238.17961 L207.56757,-235.15219 L207.8879,-232.13885 L208.2082,-229.14111 L208.52853,-226.16042 L208.84885,-223.19814 L209.16917,-220.25563 L209.48949,-217.33415 L209.80981,-214.4349 L210.13013,-211.55905 L210.45045,-208.70767 L210.77077,-205.88179 L211.0911,-203.08235 L211.4114,-200.31029 L211.73174,-197.56642 L212.05205,-194.85155 L212.37238,-192.16638 L212.69269,-189.51161 L213.01302,-186.88785 L213.33333,-184.29565 L213.65366,-181.73552 L213.97397,-179.20792 L214.2943,-176.71326 L214.61461,-174.25189 L214.93494,-171.82413 L215.25525,-169.43024 L215.57558,-167.07043 L215.89589,-164.7449 L216.21622,-162.45378 L216.53653,-160.19717 L216.85686,-157.97514 L217.17717,-155.7877 L217.4975,-153.63487 L217.81783,-151.51659 L218.13814,-149.43279 L218.45847,-147.38338 L218.77878,-145.36823 L219.0991,-143.38719 L219.41942,-141.4401 L219.73975,-139.52673 L220.06006,-137.64688 L220.38039,-135.80032 L220.7007,-133.98679 L221.02103,-132.206 L221.34134,-130.45766 L221.66167,-128.74147 L221.98198,-127.057106 L222.3023,-125.40425 L222.62262,-123.782555 L222.94295,-122.191666 L223.26326,-120.631226 L223.58359,-119.10085 L223.9039,-117.60018 L224.22423,-116.12883 L224.54454,-114.68641 L224.86487,-113.27252 L225.18518,-111.88677 L225.50551,-110.52877 L225.82582,-109.198105 L226.14615,-107.89437 L226.46646,-106.61717 L226.78679,-105.366104 L227.1071,-104.140755 L227.42743,-102.94073 L227.74774,-101.76561 L228.06807,-100.615005 L228.38838,-99.48851 L228.70871,-98.385735 L229.02902,-97.306274 L229.34935,-96.24974 L229.66966,-95.215744 L229.98999,-94.2039 L230.3103,-93.21383 L230.63063,-92.24515 L230.95096,-91.29748 L231.27127,-90.37047 L231.5916,-89.46373 L231.91191,-88.57692 L232.23224,-87.70968 L232.55255,-86.86166 L232.87288,-86.0325 L233.19319,-85.221886 L233.51352,-84.42946 L233.83383,-83.65491 L234.15416,-82.897896 L234.47447,-82.158104 L234.7948,-81.435234 L235.11511,-80.72896 L235.43544,-80.03899 L235.75575,-79.36502 L236.07608,-78.706764 L236.3964,-78.063934 L236.71672,-77.43625 L237.03703,-76.82343 L237.35736,-76.22522 L237.67767,-75.64134 L237.998,-75.07154 L238.31831,-74.51557 L238.63864,-73.97317 L238.95895,-73.4441 L239.27928,-72.92813 L239.5996,-72.42502 L239.91992,-71.93454 L240.24023,-71.45647 L240.56056,-70.99059 L240.88087,-70.5367 L241.2012,-70.09457 L241.52151,-69.66401 L241.84184,-69.24482 L242.16216,-68.8368 L242.48248,-68.439766 L242.8028,-68.053535 L243.12312,-67.67792 L243.44345,-67.31274 L243.76376,-66.95783 L244.08409,-66.61302 L244.4044,-66.27815 L244.72473,-65.95305 L245.04504,-65.63757 L245.36537,-65.331566 L245.68568,-65.034874 L246.00601,-64.74735 L246.32632,-64.46887 L246.64665,-64.19928 L246.96696,-63.938454 L247.2873,-63.686256 L247.6076,-63.442562 L247.92793,-63.20725 L248.24825,-62.980198 L248.56857,-62.761288 L248.88889,-62.550407 L249.20921,-62.347443 L249.52953,-62.15229 L249.84985,-61.964844 L250.17017,-61.785 L250.4905,-61.612663 L250.8108,-61.44773 L251.13113,-61.290115 L251.45145,-61.13972 L251.77177,-60.996464 L252.09209,-60.86026 L252.41241,-60.731018 L252.73273,-60.608665 L253.05305,-60.493122 L253.37337,-60.38431 L253.6937,-60.28216 L254.014,-60.1866 L254.33434,-60.097557 L254.65465,-60.01497 L254.97498,-59.938766 L255.29529,-59.868896 L255.61562,-59.80529 L255.93593,-59.747894 L256.25626,-59.696648 L256.57657,-59.651505 L256.8969,-59.612408 L257.21722,-59.579304 L257.53754,-59.55215 L257.85785,-59.5309 L258.1782,-59.515503 L258.4985,-59.505924 L258.81882,-59.502113 L259.13913,-59.50404 L259.45947,-59.511658 L259.7798,-59.52494 L260.1001,-59.543842 L260.4204,-59.56834 L260.74075,-59.598396 L261.06107,-59.633984 L261.38138,-59.67507 L261.7017,-59.721634 L262.02203,-59.773647 L262.34235,-59.83109 L262.66266,-59.89393 L262.98297,-59.962154 L263.3033,-60.035736 L263.62363,-60.114666 L263.94394,-60.19892 L264.26425,-60.288486 L264.5846,-60.383347 L264.9049,-60.48349 L265.22522,-60.5889 L265.54553,-60.699574 L265.86588,-60.815495 L266.1862,-60.936657 L266.5065,-61.063053 L266.8268,-61.19468 L267.14716,-61.331524 L267.46747,-61.47359 L267.78778,-61.62087 L268.1081,-61.773365 L268.42844,-61.931072 L268.74875,-62.093994 L269.06906,-62.26213 L269.3894,-62.435486 L269.70972,-62.614063 L270.03003,-62.797867 L270.35034,-62.9869 L270.6707,-63.18117 L270.991,-63.38069 L271.3113,-63.585464 L271.63162,-63.7955 L271.95197,-64.01081 L272.27228,-64.231415 L272.5926,-64.457306 L272.9129,-64.688515 L273.23325,-64.92505 L273.55356,-65.16692 L273.87387,-65.414154 L274.19418,-65.666756 L274.51453,-65.92475 L274.83484,-66.188156 L275.15515,-66.45699 L275.47546,-66.73128 L275.7958,-67.01103 L276.11612,-67.29628 L276.43643,-67.58704 L276.75674,-67.88335 L277.0771,-68.18522 L277.3974,-68.492676 L277.7177,-68.80575 L278.03802,-69.124466 L278.35837,-69.44885 L278.67868,-69.77894 L278.999,-70.11475 L279.3193,-70.45632 L279.63965,-70.80369 L279.95996,-71.15687 L280.28027,-71.51591 L280.6006,-71.88083 L280.92093,-72.25168 L281.24124,-72.62848 L281.56155,-73.01127 L281.8819,-73.400085 L282.2022,-73.79497 L282.52252,-74.19595 L282.84283,-74.60307 L283.16318,-75.01638 L283.4835,-75.4359 L283.8038,-75.86169 L284.1241,-76.29377 L284.44446,-76.73219 L284.76477,-77.177 L285.08508,-77.62824 L285.4054,-78.08596 L285.72574,-78.550186 L286.04605,-79.02098 L286.36636,-79.49839 L286.68668,-79.982445 L287.00702,-80.47321 L287.32733,-80.970726 L287.64764,-81.47504 L287.96796,-81.9862 L288.2883,-82.504265 L288.6086,-83.02928 L288.92892,-83.561295 L289.24924,-84.100365 L289.56958,-84.64654 L289.8899,-85.19987 L290.2102,-85.760414 L290.53052,-86.32823 L290.85086,-86.903366 L291.17117,-87.48588 L291.4915,-88.07583 L291.8118,-88.67326 L292.13214,-89.27825 L292.45245,-89.89084 L292.77277,-90.51109 L293.09308,-91.13908 L293.41342,-91.77483 L293.73373,-92.418434 L294.05405,-93.06994 L294.37436,-93.72941 L294.6947,-94.396904 L295.015,-95.07249 L295.33533,-95.75621 L295.65567,-96.44816 L295.97598,-97.14838 L296.2963,-97.85693 L296.6166,-98.57389 L296.93695,-99.29932 L297.25726,-100.03328 L297.57758,-100.77584 L297.8979,-101.52707 L298.21823,-102.287025 L298.53854,-103.05578 L298.85886,-103.8334 L299.17917,-104.61994 L299.4995,-105.41549 L299.81982,-106.2201 L300.14014,-107.033844 L300.46045,-107.8568 L300.7808,-108.68901 L301.1011,-109.53057 L301.42142,-110.38154 L301.74173,-111.24198 L302.06207,-112.11197 L302.3824,-112.99158 L302.7027,-113.88086 L303.023,-114.77991 L303.34335,-115.688774 L303.66367,-116.60753 L303.98398,-117.53625 L304.3043,-118.475006 L304.62463,-119.42386 L304.94495,-120.38288 L305.26526,-121.35214 L305.58557,-122.33171 L305.9059,-123.321655 L306.22623,-124.322044 L306.54654,-125.332954 L306.86685,-126.35444 L307.1872,-127.38657 L307.5075,-128.42943 L307.82782,-129.48305 L308.14816,-130.54753 L308.46848,-131.62292 L308.7888,-132.7093 L309.1091,-133.80673 L309.42944,-134.91525 L309.74976,-136.03496 L310.07007,-137.1659 L310.39038,-138.30812 L310.71072,-139.4617 L311.03104,-140.62671 L311.35135,-141.80319 L311.67166,-142.9912 L311.992,-144.1908 L312.31232,-145.40205 L312.63263,-146.625 L312.95294,-147.85971 L313.2733,-149.10622 L313.5936,-150.36458 L313.9139,-151.63486 L314.23422,-152.91707 L314.55457,-154.2113 L314.87488,-155.51756 L315.1952,-156.8359 L315.5155,-158.16638 L315.83585,-159.50902 L316.15616,-160.86386 L316.47647,-162.23093 L316.79678,-163.61028 L317.11713,-165.00189 L317.43744,-166.40585 L317.75775,-167.82214 L318.07806,-169.25082 L318.3984,-170.69188 L318.71872,-172.14532 L319.03903,-173.6112 L319.35934,-175.08951 L319.6797,-176.58025 L320,-178.0834" fill="none" stroke="#35C788" stroke-linejoin="round" stroke-width="2"/>
</g>
</g>
<g>
<g>
<path d="M0,-18.606966 L0,-18.606966 L0.3203203,-18.777811 L0.6406406,-18.952065 L0.960961,-19.129768 L1.2812812,-19.31096 L1.6016016,-19.495682 L1.921922,-19.683973 L2.2422423,-19.87587 L2.5625625,-20.071411 L2.8828828,-20.270632 L3.2032032,-20.473568 L3.5235236,-20.68025 L3.843844,-20.890713 L4.164164,-21.104986 L4.4844847,-21.323097 L4.804805,-21.545074 L5.125125,-21.770943 L5.4454455,-22.000723 L5.7657657,-22.234436 L6.0860863,-22.472101 L6.4064064,-22.713732 L6.7267265,-22.959343 L7.047047,-23.208942 L7.3673673,-23.462536 L7.687688,-23.720129 L8.008008,-23.981722 L8.328328,-24.247309 L8.648648,-24.516884 L8.968969,-24.790436 L9.289289,-25.067947 L9.60961,-25.349401 L9.92993,-25.634773 L10.25025,-25.924034 L10.570571,-26.21715 L10.890891,-26.514082 L11.211211,-26.814789 L11.531531,-27.11922 L11.851851,-27.427322 L12.172173,-27.739037 L12.492493,-28.054295 L12.812813,-28.37303 L13.133133,-28.69516 L13.453453,-29.020607 L13.773774,-29.34928 L14.094094,-29.68108 L14.414414,-30.015911 L14.734735,-30.35366 L15.055055,-30.694216 L15.375376,-31.037457 L15.695696,-31.383253 L16.016016,-31.731474 L16.336336,-32.081978 L16.656656,-32.43462 L16.976976,-32.789246 L17.297297,-33.14569 L17.617619,-33.5038 L17.937939,-33.863396 L18.258259,-34.224297 L18.578579,-34.58633 L18.8989,-34.9493 L19.21922,-35.313015 L19.53954,-35.677273 L19.85986,-36.041874 L20.18018,-36.40661 L20.5005,-36.77126 L20.820822,-37.135616 L21.141142,-37.499454 L21.461462,-37.862553 L21.781782,-38.22468 L22.102102,-38.585613 L22.422422,-38.945114 L22.742743,-39.30295 L23.063063,-39.658894 L23.383383,-40.0127 L23.703703,-40.364136 L24.024025,-40.712967 L24.344345,-41.058956 L24.664665,-41.401867 L24.984985,-41.74147 L25.305305,-42.07753 L25.625626,-42.409817 L25.945946,-42.738106 L26.266266,-43.06217 L26.586586,-43.38179 L26.906906,-43.696754 L27.227228,-44.006847 L27.547548,-44.31186 L27.867868,-44.611595 L28.188189,-44.905853 L28.508509,-45.194447 L28.828829,-45.477192 L29.149149,-45.75391 L29.46947,-46.024433 L29.78979,-46.288597 L30.11011,-46.546246 L30.430431,-46.797234 L30.750751,-47.04142 L31.071072,-47.27867 L31.391392,-47.50887 L31.711712,-47.731895 L32.032032,-47.94764 L32.352352,-48.156013 L32.672672,-48.35692 L32.992992,-48.55028 L33.313313,-48.736027 L33.633633,-48.91409 L33.953953,-49.08442 L34.274273,-49.24697 L34.594593,-49.401703 L34.914913,-49.548588 L35.235237,-49.687607 L35.555557,-49.818745 L35.875877,-49.941998 L36.196198,-50.057373 L36.516518,-50.164875 L36.836838,-50.264523 L37.157158,-50.35635 L37.477478,-50.440376 L37.7978,-50.51665 L38.11812,-50.58522 L38.43844,-50.646126 L38.75876,-50.699436 L39.07908,-50.745213 L39.3994,-50.78352 L39.71972,-50.814438 L40.04004,-50.838043 L40.36036,-50.854424 L40.68068,-50.86366 L41.001,-50.865852 L41.32132,-50.861095 L41.641644,-50.849487 L41.961964,-50.831135 L42.282284,-50.80614 L42.602604,-50.774616 L42.922924,-50.736675 L43.243244,-50.692432 L43.563564,-50.642 L43.883884,-50.5855 L44.204205,-50.52305 L44.524525,-50.454773 L44.844845,-50.38079 L45.165165,-50.301228 L45.485485,-50.21621 L45.805805,-50.12586 L46.126125,-50.030304 L46.446445,-49.92967 L46.766766,-49.82408 L47.087086,-49.713665 L47.407406,-49.59855 L47.727726,-49.478855 L48.04805,-49.35471 L48.36837,-49.22624 L48.68869,-49.093563 L49.00901,-48.95681 L49.32933,-48.8161 L49.64965,-48.67155 L49.96997,-48.523285 L50.29029,-48.37142 L50.61061,-48.21608 L50.93093,-48.05737 L51.25125,-47.895412 L51.57157,-47.730316 L51.89189,-47.562195 L52.21221,-47.391163 L52.53253,-47.21732 L52.85285,-47.04078 L53.173172,-46.861645 L53.493492,-46.68002 L53.813812,-46.496006 L54.134132,-46.309704 L54.454456,-46.12121 L54.774776,-45.930622 L55.095097,-45.738033 L55.415417,-45.543537 L55.735737,-45.347225 L56.056057,-45.149185 L56.376377,-44.94951 L56.696697,-44.748272 L57.017017,-44.545567 L57.337337,-44.341473 L57.657658,-44.13607 L57.977978,-43.929436 L58.298298,-43.721645 L58.618618,-43.51277 L58.93894,-43.302895 L59.25926,-43.09208 L59.57958,-42.880398 L59.8999,-42.667915 L60.22022,-42.4547 L60.54054,-42.240814 L60.860863,-42.02632 L61.181183,-41.811283 L61.501503,-41.59576 L61.821823,-41.379807 L62.142143,-41.163483 L62.462463,-40.94684 L62.782784,-40.72993 L63.103104,-40.51281 L63.423424,-40.29553 L63.743744,-40.078133 L64.064064,-39.860672 L64.384384,-39.64319 L64.704704,-39.42573 L65.025024,-39.208344 L65.345345,-38.99107 L65.665665,-38.77394 L65.985985,-38.557007 L66.306305,-38.340305 L66.626625,-38.123867 L66.946945,-37.90773 L67.267265,-37.691933 L67.587585,-37.47651 L67.907906,-37.26149 L68.228226,-37.046906 L68.548546,-36.832787 L68.868866,-36.619167 L69.189186,-36.40607 L69.50951,-36.193527 L69.82983,-35.981564 L70.15015,-35.770203 L70.470474,-35.559475 L70.790794,-35.3494 L71.111115,-35.140003 L71.431435,-34.931305 L71.751755,-34.723324 L72.072075,-34.51609 L72.392395,-34.309616 L72.712715,-34.10392 L73.033035,-33.899025 L73.353355,-33.694946 L73.673676,-33.4917 L73.993996,-33.289307 L74.314316,-33.087776 L74.634636,-32.887127 L74.954956,-32.68737 L75.275276,-32.488525 L75.5956,-32.2906 L75.91592,-32.09361 L76.23624,-31.897566 L76.55656,-31.702478 L76.87688,-31.50836 L77.1972,-31.315222 L77.51752,-31.123072 L77.83784,-30.93192 L78.15816,-30.741776 L78.47848,-30.552647 L78.7988,-30.36454 L79.11912,-30.177465 L79.43944,-29.99143 L79.75976,-29.80644 L80.08008,-29.6225 L80.4004,-29.43962 L80.72072,-29.2578 L81.04104,-29.077047 L81.36136,-28.89737 L81.68168,-28.71877 L82.002,-28.541252 L82.32232,-28.364819 L82.64264,-28.189474 L82.96296,-28.015223 L83.28329,-27.842066 L83.60361,-27.670008 L83.92393,-27.499048 L84.24425,-27.329193 L84.56457,-27.16044 L84.88489,-26.992796 L85.20521,-26.826256 L85.52553,-26.660826 L85.84585,-26.496504 L86.16617,-26.333294 L86.48649,-26.171192 L86.80681,-26.010202 L87.12713,-25.850323 L87.44745,-25.691553 L87.76777,-25.533894 L88.08809,-25.377344 L88.40841,-25.221905 L88.72873,-25.067572 L89.04905,-24.914347 L89.36937,-24.762228 L89.68969,-24.611214 L90.01001,-24.461304 L90.33033,-24.312494 L90.65065,-24.164785 L90.97097,-24.018175 L91.29129,-23.87266 L91.61161,-23.72824 L91.93193,-23.584911 L92.25225,-23.442673 L92.57257,-23.301521 L92.89289,-23.161455 L93.21321,-23.02247 L93.53353,-22.884565 L93.85385,-22.747736 L94.17417,-22.611982 L94.49449,-22.477299 L94.81481,-22.343683 L95.13513,-22.211132 L95.45545,-22.079641 L95.77577,-21.949211 L96.0961,-21.819836 L96.41642,-21.691511 L96.73674,-21.564236 L97.05706,-21.438005 L97.37738,-21.312817 L97.6977,-21.188663 L98.01802,-21.065548 L98.33834,-20.94346 L98.65866,-20.822401 L98.97898,-20.702366 L99.2993,-20.58335 L99.61962,-20.465347 L99.93994,-20.348358 L100.26026,-20.232378 L100.58058,-20.117401 L100.9009,-20.003426 L101.22122,-19.890448 L101.54154,-19.77846 L101.86186,-19.667463 L102.18218,-19.55745 L102.5025,-19.448418 L102.82282,-19.340363 L103.14314,-19.23328 L103.46346,-19.127167 L103.78378,-19.02202 L104.1041,-18.917833 L104.42442,-18.814604 L104.74474,-18.712328 L105.06506,-18.611002 L105.38538,-18.51062 L105.7057,-18.41118 L106.026024,-18.312677 L106.346344,-18.215109 L106.666664,-18.118471 L106.986984,-18.022757 L107.307304,-17.927967 L107.627625,-17.834093 L107.947945,-17.741135 L108.268265,-17.649086 L108.588585,-17.557945 L108.90891,-17.467707 L109.22923,-17.378368 L109.54955,-17.289925 L109.86987,-17.202374 L110.19019,-17.11571 L110.51051,-17.02993 L110.83083,-16.945032 L111.15115,-16.861012 L111.47147,-16.777864 L111.791794,-16.695587 L112.112114,-16.614178 L112.432434,-16.533632 L112.752754,-16.453945 L113.073074,-16.375116 L113.393394,-16.29714 L113.713715,-16.220013 L114.034035,-16.143734 L114.354355,-16.068298 L114.674675,-15.993703 L114.994995,-15.919945 L115.315315,-15.847022 L115.635635,-15.77493 L115.955956,-15.703666 L116.276276,-15.633228 L116.596596,-15.563613 L116.916916,-15.494817 L117.237236,-15.426839 L117.557556,-15.359674 L117.87788,-15.293322 L118.1982,-15.227778 L118.51852,-15.163042 L118.83884,-15.09911 L119.15916,-15.035978 L119.47948,-14.973647 L119.7998,-14.912113 L120.12012,-14.851374 L120.44044,-14.791427 L120.76076,-14.73227 L121.08108,-14.6739025 L121.4014,-14.616322 L121.721725,-14.5595255 L122.042046,-14.503511 L122.362366,-14.448279 L122.682686,-14.3938265 L123.003006,-14.340151 L123.323326,-14.287251 L123.64365,-14.235127 L123.96397,-14.183777 L124.28429,-14.133198 L124.60461,-14.083389 L124.92493,-14.034351 L125.24525,-13.986082 L125.56557,-13.93858 L125.88589,-13.891844 L126.20621,-13.845875 L126.52653,-13.80067 L126.84685,-13.75623 L127.16717,-13.712554 L127.48749,-13.6696415 L127.80781,-13.627492 L128.12813,-13.586105 L128.44846,-13.545482 L128.76877,-13.50562 L129.0891,-13.466521 L129.40941,-13.428185 L129.72974,-13.390613 L130.05005,-13.353803 L130.37038,-13.317757 L130.69069,-13.2824745 L131.01102,-13.247957 L131.33133,-13.214206 L131.65166,-13.181221 L131.97197,-13.149003 L132.2923,-13.117555 L132.61261,-13.086875 L132.93294,-13.056968 L133.25325,-13.027832 L133.57358,-12.999472 L133.89389,-12.971887 L134.21422,-12.945079 L134.53453,-12.919052 L134.85486,-12.893806 L135.17517,-12.869346 L135.4955,-12.845671 L135.81581,-12.822785 L136.13614,-12.800692 L136.45645,-12.779393 L136.77678,-12.758892 L137.09709,-12.739192 L137.41742,-12.720296 L137.73773,-12.702208 L138.05806,-12.68493 L138.37837,-12.6684675 L138.6987,-12.652824 L139.01901,-12.638004 L139.33934,-12.624011 L139.65965,-12.61085 L139.97998,-12.598526 L140.3003,-12.587043 L140.62062,-12.5764065 L140.94095,-12.566622 L141.26126,-12.5576935 L141.58159,-12.549628 L141.9019,-12.542432 L142.22223,-12.53611 L142.54254,-12.530669 L142.86287,-12.526115 L143.18318,-12.522455 L143.50351,-12.519697 L143.82382,-12.517846 L144.14415,-12.516911 L144.46446,-12.516898 L144.78479,-12.5178175 L145.1051,-12.519675 L145.42543,-12.52248 L145.74574,-12.526241 L146.06607,-12.530967 L146.38638,-12.536667 L146.70671,-12.54335 L147.02702,-12.551026 L147.34735,-12.559706 L147.66766,-12.569399 L147.98799,-12.580115 L148.3083,-12.591867 L148.62863,-12.604665 L148.94894,-12.61852 L149.26927,-12.633444 L149.58958,-12.64945 L149.90991,-12.66655 L150.23022,-12.684755 L150.55055,-12.704082 L150.87086,-12.724541 L151.1912,-12.746147 L151.5115,-12.768914 L151.83183,-12.792858 L152.15215,-12.817992 L152.47247,-12.844333 L152.79279,-12.871896 L153.11311,-12.900696 L153.43343,-12.930751 L153.75375,-12.962077 L154.07408,-12.994693 L154.3944,-13.028615 L154.71472,-13.063862 L155.03503,-13.100451 L155.35536,-13.138405 L155.67567,-13.17774 L155.996,-13.218477 L156.31631,-13.260637 L156.63664,-13.30424 L156.95695,-13.349309 L157.27728,-13.395865 L157.5976,-13.44393 L157.91792,-13.493527 L158.23824,-13.544681 L158.55856,-13.597413 L158.87888,-13.651751 L159.1992,-13.707717 L159.51952,-13.765338 L159.83984,-13.824639 L160.16016,-13.885649 L160.48048,-13.948392 L160.8008,-14.012898 L161.12112,-14.079195 L161.44144,-14.14731 L161.76176,-14.217276 L162.08208,-14.289119 L162.4024,-14.362871 L162.72272,-14.438564 L163.04305,-14.516229 L163.36336,-14.595898 L163.68369,-14.677605 L164.004,-14.761381 L164.32433,-14.847261 L164.64464,-14.935282 L164.96497,-15.0254755 L165.28528,-15.117879 L165.6056,-15.212527 L165.92592,-15.309459 L166.24625,-15.4087105 L166.56657,-15.510319 L166.88689,-15.614324 L167.20721,-15.720762 L167.52753,-15.829676 L167.84785,-15.941102 L168.16817,-16.055082 L168.4885,-16.171656 L168.8088,-16.290867 L169.12914,-16.412752 L169.44945,-16.537357 L169.76978,-16.664724 L170.09009,-16.794893 L170.41042,-16.927908 L170.73073,-17.06381 L171.05106,-17.202646 L171.37137,-17.344456 L171.6917,-17.489285 L172.01201,-17.637175 L172.33234,-17.78817 L172.65265,-17.942314 L172.97298,-18.09965 L173.29329,-18.26022 L173.61362,-18.424068 L173.93393,-18.591236 L174.25426,-18.761766 L174.57457,-18.935701 L174.8949,-19.113083 L175.21521,-19.29395 L175.53554,-19.47834 L175.85585,-19.666298 L176.17618,-19.857857 L176.49649,-20.053057 L176.81682,-20.251934 L177.13713,-20.454523 L177.45746,-20.660854 L177.77777,-20.870964 L178.0981,-21.084883 L178.41841,-21.302635 L178.73874,-21.524252 L179.05905,-21.749756 L179.37938,-21.979172 L179.6997,-22.212517 L180.02002,-22.449814 L180.34035,-22.691076 L180.66066,-22.936316 L180.98099,-23.185543 L181.3013,-23.438765 L181.62163,-23.695986 L181.94194,-23.957207 L182.26227,-24.222422 L182.58258,-24.491627 L182.90291,-24.764809 L183.22322,-25.041952 L183.54355,-25.32304 L183.86386,-25.60805 L184.18419,-25.896948 L184.5045,-26.189707 L184.82483,-26.486286 L185.14514,-26.786644 L185.46547,-27.09073 L185.78578,-27.398493 L186.10611,-27.709873 L186.42642,-28.024805 L186.74675,-28.34322 L187.06706,-28.66504 L187.38739,-28.99018 L187.7077,-29.318556 L188.02803,-29.65007 L188.34834,-29.984623 L188.66867,-30.322105 L188.98898,-30.662405 L189.30931,-31.0054 L189.62962,-31.350965 L189.94995,-31.698967 L190.27026,-32.049263 L190.59059,-32.401714 L190.9109,-32.75616 L191.23123,-33.112446 L191.55154,-33.470406 L191.87187,-33.82987 L192.1922,-34.19066 L192.51251,-34.552593 L192.83284,-34.91548 L193.15315,-35.279137 L193.47348,-35.643353 L193.7938,-36.00793 L194.11412,-36.37266 L194.43443,-36.73733 L194.75476,-37.101723 L195.07507,-37.465622 L195.3954,-37.828796 L195.71571,-38.191025 L196.03604,-38.55208 L196.35635,-38.91172 L196.67668,-39.269722 L196.997,-39.62585 L197.31732,-39.979866 L197.63763,-40.331535 L197.95796,-40.68062 L198.27827,-41.026882 L198.5986,-41.37009 L198.91891,-41.71001 L199.23924,-42.046406 L199.55956,-42.379055 L199.87988,-42.707726 L200.2002,-43.032192 L200.52052,-43.352238 L200.84084,-43.667645 L201.16116,-43.978195 L201.48148,-44.28369 L201.8018,-44.583927 L202.12212,-44.878704 L202.44244,-45.16783 L202.76276,-45.45113 L203.08308,-45.728416 L203.4034,-45.999523 L203.72372,-46.264286 L204.04404,-46.522545 L204.36436,-46.77416 L204.68468,-47.018986 L205.005,-47.25689 L205.32533,-47.487747 L205.64565,-47.71144 L205.96597,-47.92787 L206.28629,-48.136932 L206.60661,-48.33854 L206.92693,-48.532604 L207.24725,-48.71906 L207.56757,-48.897842 L207.8879,-49.068893 L208.2082,-49.23217 L208.52853,-49.38763 L208.84885,-49.535248 L209.16917,-49.675 L209.48949,-49.806873 L209.80981,-49.93086 L210.13013,-50.046967 L210.45045,-50.1552 L210.77077,-50.25558 L211.0911,-50.348133 L211.4114,-50.432884 L211.73174,-50.50988 L212.05205,-50.579163 L212.37238,-50.64078 L212.69269,-50.694794 L213.01302,-50.74127 L213.33333,-50.78027 L213.65366,-50.81187 L213.97397,-50.836155 L214.2943,-50.8532 L214.61461,-50.8631 L214.93494,-50.865944 L215.25525,-50.861828 L215.57558,-50.850853 L215.89589,-50.833122 L216.21622,-50.808743 L216.53653,-50.777824 L216.85686,-50.740475 L217.17717,-50.69681 L217.4975,-50.64695 L217.81783,-50.59101 L218.13814,-50.52911 L218.45847,-50.46137 L218.77878,-50.387913 L219.0991,-50.308865 L219.41942,-50.22435 L219.73975,-50.13449 L220.06006,-50.039413 L220.38039,-49.939247 L220.7007,-49.834114 L221.02103,-49.72414 L221.34134,-49.609455 L221.66167,-49.490185 L221.98198,-49.366447 L222.3023,-49.238377 L222.62262,-49.106087 L222.94295,-48.969707 L223.26326,-48.82936 L223.58359,-48.68516 L223.9039,-48.53724 L224.22423,-48.385704 L224.54454,-48.23068 L224.86487,-48.07228 L225.18518,-47.910618 L225.50551,-47.74581 L225.82582,-47.57797 L226.14615,-47.4072 L226.46646,-47.233616 L226.78679,-47.057323 L227.1071,-46.878426 L227.42743,-46.697025 L227.74774,-46.51323 L228.06807,-46.327137 L228.38838,-46.138844 L228.70871,-45.948444 L229.02902,-45.75604 L229.34935,-45.561718 L229.66966,-45.36557 L229.98999,-45.16769 L230.3103,-44.96816 L230.63063,-44.767067 L230.95096,-44.564495 L231.27127,-44.360527 L231.5916,-44.15524 L231.91191,-43.948715 L232.23224,-43.74103 L232.55255,-43.532257 L232.87288,-43.322468 L233.19319,-43.11174 L233.51352,-42.900135 L233.83383,-42.687725 L234.15416,-42.47457 L234.47447,-42.260746 L234.7948,-42.04631 L235.11511,-41.831318 L235.43544,-41.615837 L235.75575,-41.39992 L236.07608,-41.183628 L236.3964,-40.967014 L236.71672,-40.75013 L237.03703,-40.533024 L237.35736,-40.315758 L237.67767,-40.09837 L237.998,-39.880913 L238.31831,-39.66343 L238.63864,-39.44597 L238.95895,-39.228573 L239.27928,-39.011284 L239.5996,-38.794144 L239.91992,-38.57719 L240.24023,-38.360462 L240.56056,-38.143997 L240.88087,-37.927834 L241.2012,-37.712006 L241.52151,-37.496544 L241.84184,-37.281483 L242.16216,-37.066856 L242.48248,-36.852695 L242.8028,-36.639027 L243.12312,-36.42588 L243.44345,-36.213284 L243.76376,-36.001266 L244.08409,-35.78985 L244.4044,-35.57906 L244.72473,-35.368923 L245.04504,-35.159462 L245.36537,-34.950695 L245.68568,-34.742653 L246.00601,-34.535343 L246.32632,-34.3288 L246.64665,-34.12303 L246.96696,-33.91806 L247.2873,-33.713905 L247.6076,-33.510582 L247.92793,-33.308105 L248.24825,-33.106495 L248.56857,-32.90576 L248.88889,-32.705925 L249.20921,-32.506992 L249.52953,-32.308983 L249.84985,-32.111904 L250.17017,-31.915771 L250.4905,-31.720594 L250.8108,-31.526386 L251.13113,-31.333157 L251.45145,-31.140913 L251.77177,-30.949669 L252.09209,-30.75943 L252.41241,-30.570206 L252.73273,-30.382004 L253.05305,-30.194834 L253.37337,-30.008701 L253.6937,-29.823612 L254.014,-29.639576 L254.33434,-29.456594 L254.65465,-29.274675 L254.97498,-29.093826 L255.29529,-28.914047 L255.61562,-28.735348 L255.93593,-28.557728 L256.25626,-28.381193 L256.57657,-28.205748 L256.8969,-28.031393 L257.21722,-27.858135 L257.53754,-27.685974 L257.85785,-27.514914 L258.1782,-27.344955 L258.4985,-27.1761 L258.81882,-27.008352 L259.13913,-26.84171 L259.45947,-26.676176 L259.7798,-26.511751 L260.1001,-26.348436 L260.4204,-26.186232 L260.74075,-26.025139 L261.06107,-25.865156 L261.38138,-25.706284 L261.7017,-25.548521 L262.02203,-25.391869 L262.34235,-25.236324 L262.66266,-25.081888 L262.98297,-24.92856 L263.3033,-24.776339 L263.62363,-24.625223 L263.94394,-24.475208 L264.26425,-24.326298 L264.5846,-24.178486 L264.9049,-24.031775 L265.22522,-23.886158 L265.54553,-23.741634 L265.86588,-23.598206 L266.1862,-23.455866 L266.5065,-23.314613 L266.8268,-23.174444 L267.14716,-23.03536 L267.46747,-22.897354 L267.78778,-22.760426 L268.1081,-22.62457 L268.42844,-22.489788 L268.74875,-22.356073 L269.06906,-22.223423 L269.3894,-22.091835 L269.70972,-21.961306 L270.03003,-21.831833 L270.35034,-21.703411 L270.6707,-21.576036 L270.991,-21.449709 L271.3113,-21.324423 L271.63162,-21.200176 L271.95197,-21.076962 L272.27228,-20.95478 L272.5926,-20.833626 L272.9129,-20.713493 L273.23325,-20.594383 L273.55356,-20.476288 L273.87387,-20.359205 L274.19418,-20.24313 L274.51453,-20.128061 L274.83484,-20.013992 L275.15515,-19.900919 L275.47546,-19.788841 L275.7958,-19.677752 L276.11612,-19.567648 L276.43643,-19.458525 L276.75674,-19.350378 L277.0771,-19.243206 L277.3974,-19.137003 L277.7177,-19.031765 L278.03802,-18.92749 L278.35837,-18.824171 L278.67868,-18.721807 L278.999,-18.620392 L279.3193,-18.519922 L279.63965,-18.420395 L279.95996,-18.321806 L280.28027,-18.224152 L280.6006,-18.127426 L280.92093,-18.031626 L281.24124,-17.93675 L281.56155,-17.842793 L281.8819,-17.749748 L282.2022,-17.657616 L282.52252,-17.56639 L282.84283,-17.476068 L283.16318,-17.386644 L283.4835,-17.298119 L283.8038,-17.210484 L284.1241,-17.123737 L284.44446,-17.037876 L284.76477,-16.952896 L285.08508,-16.868793 L285.4054,-16.785566 L285.72574,-16.703209 L286.04605,-16.621717 L286.36636,-16.541092 L286.68668,-16.461325 L287.00702,-16.382416 L287.32733,-16.304361 L287.64764,-16.227156 L287.96796,-16.150797 L288.2883,-16.075283 L288.6086,-16.00061 L288.92892,-15.926775 L289.24924,-15.853774 L289.56958,-15.781605 L289.8899,-15.710264 L290.2102,-15.63975 L290.53052,-15.570057 L290.85086,-15.501185 L291.17117,-15.433131 L291.4915,-15.365891 L291.8118,-15.299463 L292.13214,-15.233845 L292.45245,-15.169033 L292.77277,-15.105025 L293.09308,-15.041821 L293.41342,-14.979415 L293.73373,-14.917807 L294.05405,-14.856993 L294.37436,-14.796972 L294.6947,-14.737742 L295.015,-14.679302 L295.33533,-14.621648 L295.65567,-14.564778 L295.97598,-14.508692 L296.2963,-14.453387 L296.6166,-14.398861 L296.93695,-14.345114 L297.25726,-14.292143 L297.57758,-14.239946 L297.8979,-14.188523 L298.21823,-14.137873 L298.53854,-14.087993 L298.85886,-14.038883 L299.17917,-13.990541 L299.4995,-13.942968 L299.81982,-13.896161 L300.14014,-13.850121 L300.46045,-13.804845 L300.7808,-13.760334 L301.1011,-13.716587 L301.42142,-13.673603 L301.74173,-13.631383 L302.06207,-13.589925 L302.3824,-13.549231 L302.7027,-13.509298 L303.023,-13.470128 L303.34335,-13.431721 L303.66367,-13.394077 L303.98398,-13.357196 L304.3043,-13.321079 L304.62463,-13.285726 L304.94495,-13.251138 L305.26526,-13.217315 L305.58557,-13.184258 L305.9059,-13.151969 L306.22623,-13.120449 L306.54654,-13.089698 L306.86685,-13.059718 L307.1872,-13.030511 L307.5075,-13.002078 L307.82782,-12.974421 L308.14816,-12.947541 L308.46848,-12.921441 L308.7888,-12.896123 L309.1091,-12.871589 L309.42944,-12.847841 L309.74976,-12.8248825 L310.07007,-12.802714 L310.39038,-12.781342 L310.71072,-12.760766 L311.03104,-12.740992 L311.35135,-12.72202 L311.67166,-12.703856 L311.992,-12.686503 L312.31232,-12.669965 L312.63263,-12.654245 L312.95294,-12.639348 L313.2733,-12.625278 L313.5936,-12.61204 L313.9139,-12.599637 L314.23422,-12.588076 L314.55457,-12.57736 L314.87488,-12.567496 L315.1952,-12.558488 L315.5155,-12.550343 L315.83585,-12.543065 L316.15616,-12.536661 L316.47647,-12.531138 L316.79678,-12.526502 L317.11713,-12.5227585 L317.43744,-12.519916 L317.75775,-12.51798 L318.07806,-12.516959 L318.3984,-12.51686 L318.71872,-12.517693 L319.03903,-12.519462 L319.35934,-12.522179 L319.6797,-12.52585 L320,-12.530486" fill="none" stroke="#DD3355" stroke-linejoin="round" stroke-width="2"/>
</g>
</g>
<g>
<g>
<line stroke="black" stroke-width="1" x1="0" x2="0" y1="0" y2="10"/>
<line stroke="black" stroke-width="1" x1="160" x2="160" y1="0" y2="10"/>
<line stroke="black" stroke-width="1" x1="320" x2="320" y1="0" y2="10"/>
<line stroke="black" stroke-width="1" x1="480" x2="480" y1="0" y2="10"/>
</g>
<line stroke="black" stroke-width="1" x1="0" x2="480" y1="0" y2="0"/>
<g>
<text font-size="12" text-anchor="middle" x="0" y="20">
0
</text>
<text font-size="12" text-anchor="middle" x="160" y="20">
0.5
</text>
<text font-size="12" text-anchor="middle" x="320" y="20">
1
</text>
<text font-size="12" text-anchor="middle" x="480" y="20">
1.5
</text>
</g>
<text font-size="12" text-anchor="middle" x="240" y="30">
Time
</text>
</g>
<g>
<g>
<line stroke="black" stroke-width="1" x1="0" x2="-10" y1="-1.691542288557214" y2="-1.691542288557214"/>
<line stroke="black" stroke-width="1" x1="0" x2="-10" y1="-69.35323383084577" y2="-69.35323383084577"/>
<line stroke="black" stroke-width="1" x1="0" x2="-10" y1="-137.01492537313433" y2="-137.01492537313433"/>
<line stroke="black" stroke-width="1" x1="0" x2="-10" y1="-204.6766169154229" y2="-204.6766169154229"/>
<line stroke="black" stroke-width="1" x1="0" x2="-10" y1="-272.33830845771143" y2="-272.33830845771143"/>
<line stroke="black" stroke-width="1" x1="0" x2="-10" y1="-340" y2="-340"/>
</g>
<line stroke="black" stroke-width="1" x1="0" x2="0" y1="0" y2="-340"/>
<g>
<text dominant-baseline="middle" font-size="12" text-anchor="end" x="-15" y="-1.691542288557214">
0
</text>
<text dominant-baseline="middle" font-size="12" text-anchor="end" x="-15" y="-69.35323383084577">
400
</text>
<text dominant-baseline="middle" font-size="12" text-anchor="end" x="-15" y="-137.01492537313433">
800
</text>
<text dominant-baseline="middle" font-size="12" text-anchor="end" x="-15" y="-204.6766169154229">
1200
</text>
<text dominant-baseline="middle" font-size="12" text-anchor="end" x="-15" y="-272.33830845771143">
1600
</text>
<text dominant-baseline="middle" font-size="12" text-anchor="end" x="-15" y="-340">
2000
</text>
</g>
<text font-size="12" text-anchor="middle" transform="rotate(-90 -48 -170)" x="-48" y="-182">

</text>
</g>
</g>
</svg>